<svg xmlns="http://www.w3.org/2000/svg"
    width="24"
    height="24"
    viewBox="0 -960 960 960">

    <circle fill="#43A047" cx="50%" cy="-50%" r="50%" />

    <!--
        Make this match the Android icon exactly. Android adaptive icons take the inner (centered)
        2/3rds of the foreground's viewbox and crop out the rest [1].

        ic_foreground is at 1/2 scale and then cropped to 2/3rds of the original viewbox, so it
        takes up (1/2) / (2/3) = 3/4 of the cropped viewbox. In this SVG version, we don't crop.
        Instead, the full size icon is scaled down to 3/4 to match.

        [1] https://cs.android.com/android/platform/superproject/+/android-13.0.0_r31:frameworks/base/graphics/java/android/graphics/drawable/AdaptiveIconDrawable.java;l=106
    -->

    <g transform-origin="50% -50%" transform="scale(0.75 0.75)">
        <path
            fill="#ffffff"
            d="M340-100v-426.15l-80-120V-860h440v213.85l-80 120V-100H340Zm140.05-250q-20.82 0-35.43-14.57Q430-379.14 430-399.95q0-20.82 14.57-35.43Q459.14-450 479.95-450q20.82 0 35.43 14.57Q530-420.86 530-400.05q0 20.82-14.57 35.43Q500.86-350 480.05-350ZM320-750h320v-50H320v50Zm320 60H320v26l80 120v384h160v-384l80-120v-26ZM480-480Z" />
    </g>
</svg>
